Coordinates
version=1
nRows=38
nColumns=12
inDegrees=yes

Units are S.I. units (second, meters, Newtons, ...)
Angles are in degrees

endheader
time	SC_y	SC_z	SC_x	AC_y	AC_z	AC_x	GH_y	GH_z	GH_yy	EL_x	PS_y
       0.0              -56.64         -1.913           75.4           42.8          2.676         -12.56         -144.1          86.89          175.6          125.9          18.57
   0.04129              -56.64         -1.908           75.4           42.8          2.675         -12.55         -144.1          86.89          175.6          125.9          18.59
   0.08258              -56.64         -1.903          75.39           42.8          2.674         -12.55         -144.1          86.89          175.5          125.9           18.6
    0.1239              -56.63         -1.897          75.39           42.8          2.674         -12.55         -144.1          86.89          175.5          125.9          18.62
    0.1652              -56.63         -1.892          75.39           42.8          2.673         -12.55         -144.1          86.89          175.4          125.9          18.63
    0.2065              -56.63         -1.885          75.39           42.8          2.672         -12.54         -144.0          86.89          175.4          125.8          18.65
    0.2478              -56.63         -1.879          75.38          42.79          2.671         -12.54         -144.0           86.9          175.3          125.8          18.67
     0.289              -56.62         -1.872          75.38          42.79           2.67         -12.54         -144.0           86.9          175.2          125.8          18.69
    0.3303              -56.62         -1.864          75.38          42.79          2.669         -12.53         -144.0           86.9          175.2          125.8          18.71
    0.3716              -56.62         -1.856          75.38          42.79          2.668         -12.53         -143.9           86.9          175.1          125.8          18.73
    0.4129              -56.61         -1.848          75.37          42.78          2.667         -12.52         -143.9           86.9          175.0          125.8          18.76
    0.4542              -56.61         -1.838          75.37          42.78          2.666         -12.52         -143.9           86.9          174.9          125.8          18.79
    0.4955              -56.61         -1.828          75.36          42.78          2.664         -12.51         -143.8           86.9          174.8          125.7          18.82
    0.5368               -56.6         -1.817          75.36          42.78          2.663         -12.51         -143.8           86.9          174.7          125.7          18.85
    0.5781               -56.6         -1.806          75.36          42.77          2.661          -12.5         -143.8           86.9          174.6          125.7          18.88
    0.6194              -56.59         -1.793          75.35          42.77          2.659          -12.5         -143.7           86.9          174.5          125.7          18.92
    0.6607              -56.59         -1.779          75.35          42.77          2.657         -12.49         -143.7           86.9          174.4          125.7          18.96
     0.702              -56.58         -1.764          75.34          42.76          2.655         -12.48         -143.6          86.91          174.2          125.6           19.0
    0.7433              -56.57         -1.748          75.33          42.76          2.653         -12.47         -143.6          86.91          174.1          125.6          19.05
    0.7846              -56.57          -1.73          75.33          42.75           2.65         -12.46         -143.5          86.91          173.9          125.6           19.1
    0.8258              -56.56          -1.71          75.32          42.75          2.648         -12.45         -143.4          86.91          173.7          125.6          19.16
    0.8671              -56.55         -1.688          75.31          42.74          2.645         -12.44         -143.3          86.91          173.5          125.5          19.22
    0.9084              -56.54         -1.664           75.3          42.73          2.641         -12.43         -143.3          86.91          173.3          125.5          19.29
    0.9497              -56.53         -1.637          75.29          42.73          2.638         -12.42         -143.2          86.92          173.0          125.4          19.37
     0.991              -56.52         -1.608          75.28          42.72          2.633          -12.4         -143.1          86.92          172.7          125.4          19.46
     1.032              -56.51         -1.575          75.27          42.71          2.629         -12.39         -142.9          86.92          172.4          125.3          19.55
     1.074              -56.49         -1.538          75.25           42.7          2.624         -12.37         -142.8          86.92          172.1          125.3          19.66
     1.115              -56.47         -1.496          75.24          42.69          2.618         -12.35         -142.7          86.93          171.7          125.2          19.78
     1.156              -56.46         -1.449          75.22          42.67          2.611         -12.32         -142.5          86.93          171.2          125.1          19.92
     1.197              -56.43         -1.395           75.2          42.66          2.604         -12.29         -142.3          86.94          170.7          125.1          20.08
     1.239              -56.41         -1.334          75.17          42.64          2.596         -12.26         -142.1          86.94          170.1          125.0          20.25
      1.28              -56.38         -1.264          75.15          42.62          2.586         -12.23         -141.9          86.95          169.5          124.9          20.46
     1.321              -56.35         -1.184          75.11           42.6          2.575         -12.19         -141.6          86.95          168.7          124.7          20.69
     1.363              -56.31          -1.09          75.08          42.57          2.562         -12.14         -141.2          86.96          167.8          124.6          20.96
     1.404              -56.27        -0.9798          75.04          42.54          2.546         -12.08         -140.8          86.97          166.8          124.4          21.28
     1.445              -56.22        -0.8503          74.99          42.51          2.528         -12.02         -140.4          86.98          165.6          124.2          21.66
     1.487              -56.16        -0.6964          74.93          42.47          2.507         -11.94         -139.8          86.99          164.1          123.9          22.11
     1.528              -56.08        -0.5118          74.85          42.41          2.481         -11.84         -139.2          87.01          162.3          123.7          22.64
